# xmcd
#
# Track frame offsets: 
#        150
#        21735
#        56252
#        76950
#        106572
#        134420
#        169325
#        191087
#        209552
#
# Disc length: 3184 seconds
#
# Revision: 1
# Processed by: cddbd v1.5.2PL0 Copyright (c) Steve Scherf et al.
# Submitted via: ExactAudioCopyFreeDBPlugin 1.0
#
DISCID=7c0c6e09
DTITLE=Various Artist - Blues Masters
DYEAR=1900
DGENRE=Blues
TTITLE0=Mighty Sam McClain - I'm So Lonely
TTITLE1=Ronnie Earl and The Brothers - Kansas City Monarch
TTITLE2=Mighty Sam McClain - Too Proud
TTITLE3=Doug Macleod - Brint It On Home
TTITLE4=Robert Lucas - Feel Like Going Home
TTITLE5=Terry Evans - Down In Mississippi
TTITLE6=Llyod Jones - Can't Get Off You Of My Mind
TTITLE7=Robert Lucas - Moonshine
TTITLE8=Feels Out In The Hallway - Feels Out In The Hallway
EXTD=
EXTT0=
EXTT1=
EXTT2=
EXTT3=
EXTT4=
EXTT5=
EXTT6=
EXTT7=
EXTT8=
PLAYORDER=
